<svg width="101" height="41" viewBox="0 0 101 41" fill="none" xmlns="http://www.w3.org/2000/svg">
<path d="M77.7057 21.2038C77.5465 21.0367 77.4163 20.431 77.4163 19.8578C77.4163 18.6606 77.7846 18.5082 80.6917 18.5028C84.003 18.4967 83.9027 16.223 80.513 14.4511C78.2897 13.2888 73.7839 13.9682 72.7517 15.6213C72.023 16.7885 69.5555 17.0934 69.5555 16.0162C69.5555 15.7553 69.6404 15.5043 69.7443 15.4585C69.9895 15.3502 71.0658 13.5017 70.9523 13.3835C70.8199 13.2456 61.0205 12.7628 52.7619 12.4872C48.7004 12.3517 43.5327 12.1712 41.2779 12.0862C36.6845 11.913 35.5647 12.2096 33.8456 14.055C33.0412 14.9184 32.6956 16.9221 33.4669 16.2502C33.765 15.9905 33.8242 16.025 33.8242 16.4582C33.8242 17.0565 34.2379 17.1595 37.3706 17.3415C38.6703 17.4171 39.4413 17.5743 39.5762 17.7914C40.1164 18.661 40.1068 19.851 39.5522 20.7502C39.2833 21.1863 29.4482 21.4431 28.8472 21.0297C28.1313 20.5373 27.6861 16.0067 28.1981 14.4242C28.41 13.7689 28.5835 12.9166 28.5835 12.5303C28.5835 12.1439 28.7882 11.6333 29.0385 11.3956C29.6035 10.859 29.8852 9.76644 29.5495 9.41411C29.4112 9.269 29.2981 8.77901 29.2981 8.32526C29.2981 7.40734 29.9888 7.19771 31.0408 7.79634C32.8058 8.80071 35.3971 8.45669 39.7792 6.63626C41.5479 5.90149 43.4773 5.16931 44.0669 5.00916C44.6565 4.84902 45.4604 4.61934 45.8535 4.49874C51.9113 2.64009 59.8467 3.83089 67.5303 7.75174C71.627 9.84219 71.072 9.68619 75.5103 9.99424C82.8323 10.5024 86.6806 11.5297 88.5281 13.4695C91.3725 16.456 91.6167 16.9235 91.7446 19.6255L91.8275 21.3755L84.9112 21.4417C79.7311 21.4912 77.9221 21.4316 77.7054 21.2042L77.7057 21.2038ZM90.379 20.3483C90.7654 20.1927 90.9064 18.7028 90.6112 17.8955C90.3426 17.1606 89.0106 17.3777 89.1483 18.1339C89.3088 19.015 88.7708 19.2501 86.5945 19.2501C84.7015 19.2501 83.2017 19.8246 83.8932 20.2848C84.2509 20.5229 89.8104 20.5773 90.379 20.3483ZM38.7094 19.9978C39.1906 19.1807 38.5866 18.8089 36.4974 18.6362C33.602 18.3969 32.7654 18.1243 32.0324 17.1815L31.4056 16.375L31.504 17.8214C31.6372 19.7797 31.7467 19.8516 34.8487 20.0193C36.3162 20.0987 37.7519 20.1831 38.039 20.2068C38.326 20.2306 38.6278 20.1366 38.7094 19.9978ZM30.2516 17.9666C30.2516 16.9857 30.3734 15.7566 30.5222 15.2353C30.8987 13.9165 30.6568 13.264 30.0168 13.8718C28.7626 15.0631 28.5835 19.7501 29.7921 19.7501C30.2031 19.7501 30.2516 19.5616 30.2516 17.9666ZM87.1833 17.7476C87.1833 17.6088 86.9491 17.2994 86.663 17.0601C86.3768 16.8208 85.4389 15.8489 84.5786 14.9002C82.1808 12.256 81.7032 12.094 74.1018 11.3487C70.619 11.0073 67.3941 10.761 66.9356 10.8014L66.1018 10.875L66.8048 11.375C67.3933 11.7936 67.9851 11.8885 70.4396 11.9579C73.0918 12.0329 73.3958 12.089 73.6285 12.5452C73.843 12.9658 74.0305 13.0214 74.7579 12.8801C78.9749 12.0612 81.6883 12.7665 83.7798 15.2254C84.3462 15.8912 84.5474 16.3686 84.554 17.0625L84.5629 18H85.8731C86.5962 18 87.1833 17.887 87.1833 17.7476ZM89.3954 15.9971C89.1573 15.0415 85.7987 12.7761 85.0226 13.0476C84.6955 13.162 86.9664 16.0298 87.5881 16.2873C88.5583 16.6891 89.529 16.5332 89.3954 15.9971ZM32.3637 12.2673C33.0341 12.1314 33.6697 11.7762 34.1503 11.2687L34.8963 10.481L32.8908 10.553C30.9442 10.623 30.873 10.6471 30.4666 11.3751C29.7774 12.6097 30.0478 12.7368 32.3637 12.2673ZM40.459 10.6064C40.5051 10.5657 40.3711 10.2751 40.1612 9.9606C39.9513 9.6461 39.7796 9.18885 39.7796 8.94442C39.7796 8.3835 39.5923 8.38777 38.2788 8.97867C37.3302 9.40545 36.4447 10.2837 36.4447 10.7978C36.4447 10.9658 40.2577 10.784 40.459 10.6064ZM63.6778 10.5856C63.764 10.4951 63.7114 10.2653 63.5608 10.075C63.2132 9.63542 63.5178 9.31342 64.382 9.20679C65.6201 9.05404 65.1369 8.62729 62.0651 7.16054C58.5442 5.47939 57.7831 5.32997 53.3951 5.45842L50.2169 5.55145L50.3748 6.46325C50.4617 6.96475 50.794 7.96075 51.1134 8.67663C51.8091 10.2361 51.6919 10.2005 57.0498 10.4775C62.4216 10.7553 63.4991 10.7729 63.6778 10.5856ZM49.1695 9.84832C49.6573 9.65186 49.6368 8.95034 49.0936 7.25007L48.6543 5.87507L47.4593 5.90739C46.1999 5.94145 41.9484 7.50989 41.3157 8.17379C40.8921 8.61836 40.8654 9.24174 41.2685 9.27356C41.4323 9.28649 42.6918 9.43954 44.0675 9.61369C46.9941 9.98416 48.6438 10.06 49.1695 9.84832Z" fill="white"/>
<path d="M75.0354 26.84C74.5768 26.7964 72.5938 26.6397 70.6286 26.4918C68.6633 26.3439 66.1979 26.1196 65.1498 25.9934C64.1017 25.8671 61.2084 25.5873 58.7203 25.3715C51.0874 24.7095 52.6115 24.4503 63.6488 24.5332C69.1121 24.5742 73.65 24.5365 73.7329 24.4494C73.8159 24.3623 73.4523 23.8382 72.9249 23.2847L71.966 22.2784L45.7799 22.1868L44.8068 23.1317C42.1724 25.69 39.7525 26.1985 34.5917 25.2785C33.843 25.145 31.5398 24.8387 29.4736 24.5978C24.825 24.0558 24.9536 23.7835 29.901 23.6936C33.6434 23.6256 33.708 23.6151 33.7828 23.062C33.8563 22.519 33.9472 22.4993 36.4031 22.496C39.6725 22.4916 39.8385 22.4344 40.4566 21.0993C41.0725 19.7689 41.0983 19.1289 40.5879 17.8425C40.0669 16.5294 40.0111 16.5077 37.1467 16.5033C33.2744 16.4974 32.8054 15.5706 35.8506 13.9416C38.7389 12.3964 42.3823 12.9254 44.4566 15.1912C46.0572 16.9395 45.7905 16.9024 60.2328 17.386C70.7028 17.7366 71.7985 17.7359 72.2623 17.3784C72.543 17.1622 73.2014 16.6547 73.7254 16.2508C75.8578 14.6073 78.2533 14.3588 80.4322 15.5552C82.5947 16.7427 82.0775 17.5907 79.1176 17.7109L76.9885 17.7974L76.6076 18.8443C75.6715 21.4165 76.7689 22.4995 80.3117 22.4995C82.3284 22.4995 82.6307 22.7457 81.6998 23.6299C80.9808 24.3127 81.4314 24.5656 83.6023 24.6975C84.6552 24.7614 85.5167 24.8976 85.5167 25.0001C85.5167 25.1026 83.9068 25.5944 81.9391 26.093C78.5944 26.9405 77.4222 27.0672 75.0354 26.84ZM71.5616 20.0885C71.7746 19.5061 72.5965 19.561 60.2665 19.3333C46.3459 19.0762 46.1847 19.081 46.8238 19.7352C46.946 19.8604 52.2985 20.0648 58.7182 20.1896C65.1379 20.3143 70.62 20.435 70.9008 20.4578C71.1825 20.4807 71.4787 20.3152 71.5616 20.0885Z" fill="#FF3D24"/>
<path d="M65.7167 16.6363C65.6571 16.5737 61.4995 16.4578 56.4776 16.3786C46.3731 16.2193 46.813 16.2948 45.2749 14.4556C44.0127 12.9463 44.0993 12.9123 48.3678 13.2428C50.3353 13.3951 52.314 13.447 52.7647 13.3583C53.2153 13.2695 54.0963 13.3183 54.7222 13.4666C55.3481 13.6149 58.6995 13.8599 62.1698 14.0111C65.6402 14.1622 68.5173 14.3256 68.5637 14.3742C68.8678 14.6933 67.9543 16.2645 67.3325 16.4921C66.5879 16.7645 65.8976 16.8261 65.7167 16.6363Z" fill="white"/>
<path d="M2.14386 34.015C2.14386 33.1981 2.25105 32.4602 2.38207 32.3752C2.51308 32.2903 2.62027 31.5597 2.62027 30.7518C2.62027 28.2425 2.82358 27.9628 4.58394 28.0508C5.97621 28.1203 6.07843 28.1664 6.13703 28.7502C6.45325 31.9005 6.63745 32.15 7.29114 30.3127C8.0732 28.1147 8.203 28.0002 9.91309 28.0002H11.434V28.8244C11.434 29.5321 10.7005 33.5482 10.3453 34.7852C10.194 35.312 9.16889 35.5201 8.65769 35.1278C8.3439 34.887 8.29436 34.5836 8.41634 33.6497C8.60512 32.2042 8.31479 32.3203 7.4951 34.018C6.51271 36.0526 5.20861 35.6438 4.89983 33.2043C4.70559 31.6702 4.49837 31.8767 4.03825 34.0628C3.74364 35.4625 3.71481 35.5003 2.93988 35.5003H2.14405L2.14386 34.015Z" fill="#FF3D24"/>
<path d="M53.2989 35.58C53.0469 35.5096 52.8821 35.2237 52.8821 34.8569C52.8821 34.2854 52.9615 34.2501 54.2518 34.2469C57.0733 34.2398 57.7501 33.4078 55.115 33.1858C52.9692 33.005 52.9003 32.8658 53.6214 30.1673C53.9143 29.0709 53.9061 28.9369 53.5322 28.7173C52.5741 28.1546 53.2575 28.0002 56.7075 28.0002C59.1387 28.0002 60.2451 28.0843 60.141 28.2612C60.0565 28.4047 60.1055 28.6715 60.2499 28.8541C60.5668 29.2549 59.6572 29.5002 57.8547 29.5002C56.9813 29.5002 56.6935 29.5932 56.6935 29.8752C56.6935 30.1667 57.0101 30.2502 58.1143 30.2502C59.2753 30.2502 59.5803 30.3387 59.7818 30.7338C60.3554 31.8586 59.5921 34.6513 58.5725 35.1581C57.9681 35.4586 54.0007 35.776 53.2989 35.58Z" fill="#FF3D24"/>
<path d="M68.368 34.5625C68.3716 33.3683 68.9637 31.0145 69.3665 30.5928C69.5762 30.3733 70.8328 30.2175 73.2836 30.1072C77.346 29.9244 76.9911 29.7571 77.2979 32C77.5736 34.0155 77.6302 34.1225 78.1251 33.565C78.3587 33.3018 78.6189 32.8581 78.7033 32.5789C78.8975 31.9368 80.5875 30.0001 80.9535 30.0001C81.4988 30.0001 81.2048 30.8 79.9182 32.8169C79.1976 33.9464 78.608 35.0174 78.608 35.1968C78.608 35.4399 78.2015 35.5041 77.0115 35.449L75.4149 35.3751L75.0463 33.3324C74.6639 31.214 74.4245 30.6687 74.1108 31.2014C74.0097 31.373 73.3863 31.5805 72.7253 31.6627L71.5235 31.8121L71.1354 33.2773C70.9219 34.0832 70.7472 34.913 70.7472 35.1213C70.7472 35.4092 70.4613 35.5001 69.5562 35.5001H68.3651L68.368 34.5625Z" fill="#FF3D24"/>
<path d="M21.7364 35.5826C21.5727 35.5146 21.4387 35.357 21.4387 35.2323C21.4387 34.8556 24.775 29.7505 25.0213 29.7505C25.1471 29.7505 25.2501 29.3568 25.2501 28.8755V28.0005H27.1296H29.0092L29.5059 29.938C29.779 31.0037 30.0734 32.6833 30.1601 33.6703L30.3177 35.465L29.472 35.6315C28.2879 35.8647 27.6321 35.5956 27.6321 34.8766C27.6321 34.5519 27.4637 34.1095 27.2578 33.8934C26.6625 33.2687 23.8278 33.4324 23.8155 34.0922C23.8003 34.9053 22.4451 35.8767 21.7364 35.5826ZM27.043 32.188C27.1902 31.7717 26.8315 30.4283 26.5472 30.3312C26.1079 30.1811 25.1213 32.0119 25.5044 32.2663C26.0019 32.5967 26.9149 32.5503 27.043 32.188Z" fill="white"/>
<path d="M12.2265 34.8525C12.0282 34.3102 12.3101 30.9063 12.6802 29.3748L12.9822 28.1248L15.0901 28.0522C16.4394 28.0057 17.3181 28.0842 17.5317 28.2703C17.9559 28.6398 17.9876 30.9153 17.5705 31.0613C17.3361 31.1433 17.3361 31.3038 17.5705 31.8439C18.0569 32.9642 17.9345 33.9124 17.2129 34.6147C16.3947 35.4109 12.4985 35.5968 12.2265 34.8525ZM15.9151 30.4345C15.9742 30.1126 15.8359 29.9999 15.3819 29.9999C14.7995 29.9999 14.5616 30.4491 14.9359 30.8419C15.2228 31.1429 15.8316 30.8896 15.9151 30.4345Z" fill="#FF3D24"/>
<path d="M31.5577 35.0825C31.2153 34.7232 31.1712 34.3677 31.2954 32.9653C31.5397 30.2075 31.6752 29.999 33.2248 29.999C34.7199 29.999 34.8455 30.2498 34.1835 31.9126C33.7072 33.109 33.7242 34.1545 34.2233 34.3555C34.8286 34.5993 34.8636 34.5224 35.7242 31.0615L35.9884 29.999H37.3164C38.8276 29.999 38.7385 29.6684 38.1244 32.999C37.6648 35.4917 37.8421 35.3644 34.7183 35.4442C32.3733 35.5041 31.9088 35.4509 31.5577 35.0825Z" fill="white"/>
<path d="M45.1856 35.34C44.8773 35.0165 45.0439 32.6308 45.4531 31.5103C45.9447 30.164 46.2204 30.0586 49.3383 30.0247C52.2301 29.9933 52.3275 30.0834 51.944 32.4341C51.7923 33.364 51.6371 34.406 51.5991 34.7498L51.5299 35.3748L48.4404 35.4442C46.7412 35.4824 45.2766 35.4355 45.1856 35.34ZM49.0145 34.2909C49.3526 34.0657 49.7844 32.6765 49.7844 31.8139C49.7844 31.3381 49.6565 31.2498 48.9677 31.2498C48.1707 31.2498 48.1439 31.2834 47.8535 32.6451C47.504 34.2843 47.9901 34.9733 49.0145 34.2909Z" fill="white"/>
<path d="M92.0506 35.3075C91.5242 34.9293 91.4685 34.114 91.8469 32.3288C92.3599 29.9089 92.4653 29.8446 95.6609 29.9989C98.5861 30.1402 99.0396 30.4582 98.6016 32.0608C98.3134 33.1153 98.321 33.1116 96.2176 33.2119C93.5432 33.3393 93.5647 34.2489 96.2419 34.2489C97.5203 34.2489 97.9761 34.6424 97.2993 35.1618C96.8252 35.5256 92.5205 35.6451 92.0506 35.3075ZM96.1704 31.9683C96.5579 31.5616 96.269 30.9981 95.6752 31.0026C94.9376 31.0081 94.4772 31.3866 94.6461 31.8485C94.8142 32.3083 95.7745 32.3837 96.1704 31.9683Z" fill="#FF3D24"/>
<path d="M61.7339 35.405C60.5952 34.9803 60.4304 34.5197 60.7696 32.7103C61.2025 30.4009 61.4314 30.251 64.5252 30.251C67.4935 30.251 67.8034 30.4195 67.573 31.9091C67.3846 33.1275 67.41 33.1139 65.1302 33.2141C62.2682 33.34 62.5149 34.501 65.4037 34.501C66.5323 34.501 66.806 34.8795 65.9241 35.2207C64.93 35.6054 62.5514 35.71 61.7339 35.405ZM65.0306 31.751C65.0306 31.3844 64.8718 31.251 64.4351 31.251C63.9984 31.251 63.8396 31.3844 63.8396 31.751C63.8396 32.1177 63.9984 32.251 64.4351 32.251C64.8718 32.251 65.0306 32.1177 65.0306 31.751Z" fill="#FF3D24"/>
<path d="M39.7997 35.2675C39.5078 35.0736 39.512 34.7985 39.8302 33.2766C40.1432 31.7795 40.1495 31.4672 39.8712 31.2248C39.3702 30.7885 39.4795 29.851 40.0789 29.4422C40.9071 28.8775 43.0913 28.6414 43.2583 29.0985C43.332 29.3002 43.7054 29.5797 44.0879 29.7197C45.4318 30.2114 44.8195 31.2363 43.1755 31.2467C42.8261 31.249 42.6386 31.4025 42.6369 31.6877C42.6355 31.9283 42.5699 32.5341 42.4911 33.034C42.3542 33.9029 42.3857 33.956 43.2083 34.2409C44.1054 34.5516 44.3395 35.0876 43.692 35.3484C43.1125 35.5818 40.1811 35.5209 39.7997 35.2675Z" fill="white"/>
<path d="M85.5903 35.3025C84.9905 34.9023 84.7632 33.7135 85.13 32.8959C85.3205 32.4713 85.5487 31.7141 85.637 31.2131C85.8298 30.1194 86.199 29.999 89.3571 29.999C91.0967 29.999 91.4712 30.0668 91.4712 30.3818C91.4712 30.8528 91.1039 31.0088 89.5117 31.214L88.271 31.374L87.9466 32.5798C87.4892 34.2805 87.6319 34.499 89.2007 34.499C90.6018 34.499 90.9278 34.8479 89.9073 35.2552C89.1898 35.5415 86.0008 35.5764 85.5903 35.3025Z" fill="#FF3D24"/>
<path d="M81.5265 35.345C81.0007 35.1021 81.6623 31.0798 82.3461 30.3623C82.7292 29.9602 84.4563 29.8647 84.6735 30.2335C84.8025 30.4527 83.7766 34.9085 83.54 35.157C83.3567 35.3494 81.842 35.4908 81.5265 35.345Z" fill="#FF3D24"/>
<path d="M82.658 29.125C82.4827 28.7813 82.2502 28.5 82.1413 28.5C82.0324 28.5 81.9434 28.3932 81.9434 28.2627C81.9434 28.1297 82.7283 28.0473 83.7297 28.0752C85.5937 28.1272 85.7703 28.2648 85.3719 29.3546C85.112 30.0655 83.0486 29.8909 82.658 29.125Z" fill="#FF3D24"/>
</svg>
